<?xml version="1.0" encoding="utf-8"?>
<!-- Generator: Adobe Illustrator 16.0.0, SVG Export Plug-In . SVG Version: 6.00 Build 0)  -->
<!DOCTYPE svg PUBLIC "-//W3C//DTD SVG 1.1//EN" "http://www.w3.org/Graphics/SVG/1.1/DTD/svg11.dtd">
<svg version="1.1" id="Layer_1" xmlns="http://www.w3.org/2000/svg" xmlns:xlink="http://www.w3.org/1999/xlink" x="0px" y="0px"
	 width="208px" height="128px" viewBox="0 0 208 128" enable-background="new 0 0 208 128" xml:space="preserve">
<g>
	<defs>
		<rect id="SVGID_1_" x="-178" y="-121.929" width="566.929" height="566.929"/>
	</defs>
	<clipPath id="SVGID_2_">
		<use xlink:href="#SVGID_1_"  overflow="visible"/>
	</clipPath>
	<path clip-path="url(#SVGID_2_)" fill="#BC3B37" d="M59.927,27.836c0,0,3.366-12.409,6.384-16.694"/>
	<path clip-path="url(#SVGID_2_)" fill="#BC3B37" d="M58.046,27.535c0.949-2.858,1.976-5.665,3.12-8.471
		c0.568-1.401,1.185-2.795,1.853-4.181c0.678-1.386,1.386-2.762,2.392-4.115c0.281-0.378,0.906-0.509,1.397-0.293
		c0.466,0.205,0.643,0.649,0.419,1.017l-0.016,0.025c-0.751,1.224-1.313,2.599-1.822,3.969c-0.506,1.376-0.968,2.768-1.382,4.174
		c-0.835,2.804-1.566,5.653-2.199,8.479l-0.004,0.013c-0.18,0.805-1.175,1.345-2.221,1.206c-1.047-0.138-1.749-0.904-1.569-1.709
		C58.023,27.612,58.034,27.572,58.046,27.535"/>
	<path clip-path="url(#SVGID_2_)" fill="#BC3B37" d="M79.852,9.672c-0.847,3.049-1.283,6.213-1.266,9.35
		c0.022,3.138,0.452,6.262,1.602,9.034c1.136,2.796,2.967,5.153,5.405,6.723c2.431,1.588,5.343,2.528,8.286,2.849
		c5.907,0.644,11.968-1.101,16.616-4.546c2.3-1.742,4.242-3.961,5.428-6.452c1.187-2.485,1.608-5.259,0.785-7.69
		c-0.776-2.432-2.646-3.885-5.377-4.165c-2.654-0.305-5.857,0.307-7.247,2.39c-0.712,1.037-0.914,2.231-0.455,3.344
		c0.448,1.116,1.439,2.099,2.583,2.623c2.377,1.1,5.495,0.934,8.481,0.407c6.038-1.085,11.847-4.211,18.632-5.647
		c3.358-0.699,7.079-0.935,10.675,0.009c3.536,0.907,7.102,2.939,9.299,6.358l0.01,0.016c0.73,1.134,0.401,2.645-0.733,3.374
		s-2.646,0.4-3.374-0.734c-0.015-0.022-0.033-0.053-0.047-0.075c-1.276-2.152-3.656-3.727-6.357-4.505
		c-2.702-0.802-5.655-0.743-8.658-0.216c-6.018,1.034-11.991,4.019-18.833,5.095c-1.712,0.25-3.439,0.41-5.243,0.288
		c-1.789-0.126-3.683-0.525-5.377-1.514c-1.714-1.001-3.111-2.525-3.806-4.465c-0.344-0.963-0.484-2.047-0.348-3.097
		c0.142-1.044,0.508-2.026,1.041-2.879c1.052-1.726,2.752-2.968,4.494-3.687c1.769-0.714,3.568-1.07,5.494-1.063
		c1.898,0.046,3.959,0.509,5.717,1.731c1.772,1.204,2.999,3.015,3.702,4.87c1.437,3.736,0.952,7.899-0.579,11.277
		c-1.531,3.433-4.003,6.256-6.881,8.426c-2.884,2.166-6.215,3.684-9.686,4.477c-3.475,0.8-7.091,0.848-10.577,0.242
		c-3.479-0.625-6.862-1.924-9.759-4.085c-2.927-2.145-5.049-5.322-6.136-8.626c-1.136-3.335-1.367-6.808-1.183-10.153
		c0.193-3.364,0.864-6.671,1.956-9.827c0.163-0.47,0.675-0.719,1.146-0.557c0.451,0.157,0.699,0.636,0.574,1.09L79.852,9.672z"/>
	<path clip-path="url(#SVGID_2_)" fill="#BC3B37" d="M156.839,60.911c10.491-6.921,10.752-13.886,10.752-13.886
		c0-1.96-0.626-3.958-2.354-5.051c-3.277-2.072-7.644-0.223-8.398,3.615c-0.755-3.838-5.121-5.687-8.397-3.615
		c-1.729,1.093-2.354,3.091-2.354,5.051C146.087,47.025,146.349,53.99,156.839,60.911"/>
	<polygon clip-path="url(#SVGID_2_)" points="19.615,83.888 23.316,71.247 25.568,71.247 27.958,86.716 26.326,86.716 
		24.326,73.316 24.281,73.316 20.443,85.979 18.787,85.979 14.926,73.592 14.88,73.592 12.719,86.716 11.088,86.716 13.754,71.247 
		15.638,71.247 19.569,83.888 	"/>
	<path clip-path="url(#SVGID_2_)" d="M39.335,86.716h-1.173l-0.115-1.425c-0.751,1.133-1.999,1.7-3.746,1.7
		c-1.609,0-2.912-0.543-3.907-1.632c-0.965-1.072-1.448-2.443-1.448-4.114c0-1.885,0.529-3.378,1.586-4.481
		c0.995-1.042,2.26-1.563,3.792-1.563c1.563,0,2.789,0.445,3.677,1.333l0.138-1.058h1.196V86.716z M31.543,84.463
		c0.735,0.797,1.701,1.195,2.896,1.195c1.302,0,2.298-0.428,2.988-1.287c0.337-0.429,0.506-0.835,0.506-1.218v-4.229
		c0.014-0.429-0.177-0.874-0.575-1.333c-0.674-0.705-1.64-1.057-2.897-1.057c-1.118,0-2.06,0.398-2.826,1.195
		c-0.828,0.858-1.241,2.015-1.241,3.471C30.395,82.547,30.776,83.636,31.543,84.463"/>
	<path clip-path="url(#SVGID_2_)" d="M43.931,77.131c0.69-1.271,1.885-1.907,3.586-1.907c2.604,0,3.907,1.341,3.907,4.022v7.493
		h-1.425v-7.126c0-2.098-0.912-3.148-2.735-3.148c-1.211,0-2.138,0.498-2.781,1.494c-0.307,0.49-0.46,1.126-0.46,1.907v6.873h-1.425
		V75.523h1.218l0.07,1.608H43.931z"/>
	<path clip-path="url(#SVGID_2_)" d="M63.191,86.761l-0.137-1.125h-0.023c-0.935,0.888-2.276,1.332-4.023,1.332
		c-1.455,0-2.658-0.506-3.608-1.517c-1.027-1.087-1.54-2.551-1.54-4.39c0-1.793,0.521-3.241,1.563-4.344
		c0.98-1.026,2.175-1.54,3.585-1.54c1.762,0,3.049,0.476,3.861,1.425h0.046V71.04h1.494v15.721H63.191z M62.387,84.601
		c0.306-0.322,0.475-0.72,0.505-1.195c0.123-1.456,0.123-2.927,0-4.413c-0.045-0.567-0.253-1.035-0.62-1.402
		c-0.675-0.675-1.671-1.012-2.988-1.012c-1.103,0-2.022,0.391-2.758,1.173c-0.797,0.843-1.195,1.953-1.195,3.332
		c0,1.411,0.398,2.536,1.195,3.379c0.75,0.782,1.67,1.173,2.758,1.173C60.663,85.636,61.697,85.29,62.387,84.601"/>
	<path clip-path="url(#SVGID_2_)" d="M77.28,86.716h-1.172l-0.115-1.425c-0.751,1.133-1.999,1.7-3.746,1.7
		c-1.609,0-2.912-0.543-3.907-1.632c-0.966-1.072-1.449-2.443-1.449-4.114c0-1.885,0.53-3.378,1.587-4.481
		c0.995-1.042,2.26-1.563,3.792-1.563c1.563,0,2.789,0.445,3.677,1.333l0.138-1.058h1.195V86.716z M69.489,84.463
		c0.735,0.797,1.701,1.195,2.896,1.195c1.302,0,2.298-0.428,2.988-1.287c0.337-0.429,0.506-0.835,0.506-1.218v-4.229
		c0.014-0.429-0.177-0.874-0.575-1.333c-0.674-0.705-1.64-1.057-2.897-1.057c-1.118,0-2.06,0.398-2.826,1.195
		c-0.828,0.858-1.241,2.015-1.241,3.471C68.34,82.547,68.722,83.636,69.489,84.463"/>
	<path clip-path="url(#SVGID_2_)" d="M81.946,77.844c0.704-1.777,2.129-2.627,4.275-2.551l0.069,1.379
		c-1.717-0.138-2.965,0.498-3.747,1.907c-0.383,0.705-0.575,1.586-0.575,2.643v5.471h-1.448V75.499h1.265l0.115,2.345H81.946z"/>
	<path clip-path="url(#SVGID_2_)" d="M88.151,72.925c-0.199-0.199-0.298-0.444-0.298-0.735s0.099-0.536,0.298-0.736
		c0.2-0.199,0.445-0.298,0.736-0.298c0.276,0,0.521,0.099,0.736,0.298c0.198,0.2,0.298,0.445,0.298,0.736s-0.1,0.536-0.298,0.735
		c-0.215,0.2-0.46,0.299-0.736,0.299C88.596,73.224,88.351,73.125,88.151,72.925 M88.174,75.523h1.402v11.216h-1.402V75.523z"/>
	<path clip-path="url(#SVGID_2_)" d="M94.265,76.994c0.644-1.165,1.762-1.747,3.355-1.747c1.686,0,2.751,0.682,3.195,2.045
		c0.598-1.363,1.862-2.045,3.793-2.045c2.375,0,3.562,1.364,3.562,4.091v7.401h-1.425v-6.964c0-2.192-0.797-3.287-2.391-3.287
		c-1.333,0-2.259,0.506-2.78,1.517c-0.23,0.521-0.345,1.08-0.345,1.677v7.057h-1.425v-7.263c0-0.904-0.261-1.64-0.782-2.207
		c-0.475-0.52-1.057-0.781-1.746-0.781c-1.119,0-1.939,0.429-2.459,1.287c-0.338,0.521-0.506,1.165-0.506,1.93v7.034h-1.425V75.546
		h1.218l0.115,1.448H94.265z"/>
	<path clip-path="url(#SVGID_2_)" d="M118.559,77.131c0.69-1.271,1.885-1.907,3.586-1.907c2.604,0,3.907,1.341,3.907,4.022v7.493
		h-1.425v-7.126c0-2.098-0.912-3.148-2.735-3.148c-1.211,0-2.138,0.498-2.781,1.494c-0.307,0.49-0.46,1.126-0.46,1.907v6.873h-1.425
		V75.523h1.219l0.069,1.608H118.559z"/>
	<path clip-path="url(#SVGID_2_)" d="M138.945,86.716h-1.172l-0.115-1.425c-0.751,1.133-1.999,1.7-3.746,1.7
		c-1.609,0-2.912-0.543-3.907-1.632c-0.966-1.072-1.448-2.443-1.448-4.114c0-1.885,0.529-3.378,1.586-4.481
		c0.996-1.042,2.261-1.563,3.793-1.563c1.562,0,2.788,0.445,3.677,1.333l0.138-1.058h1.195V86.716z M131.154,84.463
		c0.735,0.797,1.7,1.195,2.896,1.195c1.301,0,2.298-0.428,2.987-1.287c0.337-0.429,0.505-0.835,0.505-1.218v-4.229
		c0.016-0.429-0.176-0.874-0.574-1.333c-0.674-0.705-1.64-1.057-2.896-1.057c-1.118,0-2.061,0.398-2.826,1.195
		c-0.828,0.858-1.241,2.015-1.241,3.471C130.005,82.547,130.388,83.636,131.154,84.463"/>
	<path clip-path="url(#SVGID_2_)" d="M149.357,76.994c0.643-1.165,1.761-1.747,3.354-1.747c1.687,0,2.751,0.682,3.196,2.045
		c0.597-1.363,1.861-2.045,3.792-2.045c2.375,0,3.563,1.364,3.563,4.091v7.401h-1.426v-6.964c0-2.192-0.796-3.287-2.39-3.287
		c-1.333,0-2.26,0.506-2.781,1.517c-0.229,0.521-0.344,1.08-0.344,1.677v7.057h-1.426v-7.263c0-0.904-0.261-1.64-0.781-2.207
		c-0.475-0.52-1.058-0.781-1.747-0.781c-1.118,0-1.938,0.429-2.459,1.287c-0.337,0.521-0.506,1.165-0.506,1.93v7.034h-1.425V75.546
		h1.219l0.114,1.448H149.357z"/>
	<path clip-path="url(#SVGID_2_)" d="M177.121,83.337c-0.307,1.088-0.987,1.961-2.046,2.62c-1.025,0.659-2.198,0.988-3.516,0.988
		c-1.686,0-3.11-0.605-4.275-1.815c-1.103-1.15-1.655-2.505-1.655-4.068c0-1.655,0.567-3.057,1.701-4.206
		c1.149-1.134,2.559-1.702,4.229-1.702c1.624,0,2.972,0.552,4.045,1.655c1.118,1.165,1.686,2.682,1.701,4.551h-10.183
		c0.031,1.18,0.46,2.191,1.288,3.034c0.873,0.889,1.961,1.334,3.263,1.334c0.935,0,1.793-0.23,2.575-0.69
		c0.781-0.46,1.324-1.073,1.63-1.839L177.121,83.337z M175.857,80.234c-0.475-2.574-1.938-3.861-4.39-3.861
		c-1.165,0-2.153,0.367-2.965,1.103c-0.782,0.721-1.241,1.64-1.38,2.758H175.857z"/>
	<path clip-path="url(#SVGID_2_)" d="M179.144,84.693c1.272,0.72,2.582,1.08,3.931,1.08c1.977,0,2.988-0.575,3.033-1.724
		c0.092-1.149-0.751-1.961-2.527-2.436c-0.308-0.077-0.827-0.191-1.563-0.345c-2.268-0.459-3.387-1.509-3.355-3.148
		c0.016-0.874,0.367-1.571,1.058-2.092c0.735-0.536,1.784-0.812,3.148-0.827c1.501-0.031,2.911,0.253,4.229,0.85l-0.481,1.126
		c-1.303-0.582-2.574-0.85-3.816-0.804c-1.777,0.015-2.704,0.551-2.781,1.609c-0.092,1.072,0.797,1.808,2.667,2.206
		c0.49,0.092,1.026,0.215,1.608,0.368c2.299,0.567,3.402,1.678,3.311,3.332c-0.124,2.084-1.641,3.103-4.552,3.057
		c-1.716-0.03-3.226-0.452-4.527-1.264L179.144,84.693z"/>
	<path clip-path="url(#SVGID_2_)" d="M199.622,86.716h-1.172l-0.115-1.425c-0.751,1.133-2,1.7-3.746,1.7
		c-1.609,0-2.912-0.543-3.908-1.632c-0.965-1.072-1.447-2.443-1.447-4.114c0-1.885,0.529-3.378,1.586-4.481
		c0.995-1.042,2.26-1.563,3.792-1.563c1.563,0,2.789,0.445,3.678,1.333l0.138-1.058h1.195V86.716z M191.831,84.463
		c0.734,0.797,1.7,1.195,2.896,1.195c1.301,0,2.298-0.428,2.987-1.287c0.336-0.429,0.505-0.835,0.505-1.218v-4.229
		c0.016-0.429-0.176-0.874-0.574-1.333c-0.675-0.705-1.641-1.057-2.896-1.057c-1.118,0-2.061,0.398-2.826,1.195
		c-0.828,0.858-1.242,2.015-1.242,3.471C190.681,82.547,191.064,83.636,191.831,84.463"/>
	<path clip-path="url(#SVGID_2_)" d="M59.849,104.533c-1.284-0.847-2.576-1.652-3.874-2.414c-0.847,0.635-1.793,1.15-2.837,1.545
		c2.257,1.426,4.947,2.456,8.066,3.091l-0.444,1.165c-1.469-0.353-2.865-0.798-4.193-1.334v5.06h-9.188v2.414
		c1.129-0.353,2.202-0.734,3.218-1.143l0.212,0.889c-1.652,0.733-3.508,1.419-5.569,2.053l-0.253-1.079
		c0.762-0.508,1.143-1.193,1.143-2.055v-5.864c-1.285,0.635-2.647,1.179-4.087,1.631l-0.401-0.911
		c4.008-1.271,7.212-3.197,9.611-5.78l1.186,0.445l-0.55,0.571l1.185,0.826l-0.571-0.847c0.832-0.31,1.644-0.74,2.434-1.291
		c-1.171-0.664-2.145-1.207-2.921-1.631l0.592-0.761c1.214,0.62,2.28,1.193,3.198,1.714c0.818-0.72,1.503-1.552,2.053-2.498h-5.673
		v-1.016h5.842c0.198,0,0.353-0.05,0.467-0.149l1.122,0.381c-0.664,1.497-1.582,2.782-2.753,3.854
		c1.214,0.692,2.421,1.411,3.62,2.16L59.849,104.533z M42,104.787c1.524-0.339,2.851-0.854,3.98-1.546
		c-0.776-0.649-1.375-1.122-1.799-1.419l0.593-0.741c0.678,0.424,1.383,0.939,2.117,1.546c0.804-0.621,1.489-1.334,2.054-2.139
		h-4.171c-0.551,0.918-1.257,1.786-2.117,2.605l-0.615-0.784c1.144-1.129,1.991-2.385,2.541-3.769l1.122,0.149l-0.381,0.826h1.567
		v-3.388h1.165v1.165h3.598v0.931h-3.598v1.292h1.185c0.183,0,0.325-0.043,0.424-0.128l1.037,0.403l-0.021,0.021h0.021
		c-1.708,3.077-4.481,5.032-8.321,5.865L42,104.787z M55.827,106.268c-1.652-0.733-3.204-1.665-4.659-2.794
		c-1.227,1.087-2.533,2.018-3.916,2.794h3.642c-0.453-0.818-0.742-1.326-0.868-1.524l0.995-0.339c0.536,0.82,0.917,1.44,1.143,1.863
		H55.827z M47.378,108.555h7.94v-1.397h-7.94V108.555z M55.318,109.381h-7.94v1.397h7.94V109.381z M58.791,111.371
		c-0.89,0.734-1.899,1.404-3.028,2.011c1.581,0.565,2.859,1.045,3.833,1.44l-0.488,0.953c-2.837-1.172-5.695-2.23-8.574-3.176
		l0.487-0.762c1.255,0.367,2.434,0.748,3.535,1.143c1.426-0.748,2.611-1.524,3.558-2.329L58.791,111.371z"/>
	<path clip-path="url(#SVGID_2_)" d="M82.863,115.097c-3.486-0.96-6.436-2.59-8.85-4.891v5.399h-1.334v-5.42
		c-2.188,2.4-5.102,4.016-8.744,4.848l-0.381-1.079c3.035-0.734,5.527-1.991,7.474-3.769h-6.86v-1.122h8.511v-1.673H66.37v-7.071
		h5.653v-4.213h1.312v1.566h7.644v1.017h-7.644v1.63h7.115v7.071h-6.437v1.673h8.596v1.122h-7.092c2.145,1.764,4.771,3,7.876,3.705
		L82.863,115.097z M67.62,103.41h11.539v-2.033H67.62V103.41z M67.62,106.31h11.539v-1.884H67.62V106.31z"/>
	<polygon clip-path="url(#SVGID_2_)" points="105.03,112.535 105.03,113.827 85.953,113.827 85.953,112.535 93.766,112.535 
		93.766,96.105 95.186,96.105 95.186,103.156 103.209,103.156 103.209,104.427 95.186,104.427 95.186,112.535 	"/>
	<path clip-path="url(#SVGID_2_)" d="M126.032,100.086c-0.225,6.338-0.415,10.558-0.571,12.661
		c-0.084,1.313-0.451,2.124-1.101,2.434c-0.663,0.311-2.089,0.347-4.276,0.107l-0.148-1.271c1.778,0.212,2.922,0.24,3.429,0.085
		c0.48-0.155,0.749-0.607,0.806-1.355c0.099-1.454,0.269-5.236,0.509-11.348h-5.272c-0.635,1.411-1.355,2.745-2.159,4.001
		l-0.848-1.08v9.316h-7.347v-13.063h1.843c0.479-1.101,0.932-2.462,1.354-4.086l1.377,0.232c-0.438,1.553-0.896,2.837-1.377,3.854
		h4.149v3.684c1.539-2.456,2.647-5.166,3.324-8.13l1.419,0.17c-0.354,1.397-0.748,2.66-1.186,3.789H126.032z M110.302,106.268h4.807
		v-4.446h-4.807V106.268z M115.108,107.475h-4.807v4.869h4.807V107.475z M122.011,109.677c-1.271-1.849-2.456-3.437-3.558-4.764
		l0.975-0.593c1.271,1.426,2.49,2.958,3.662,4.595L122.011,109.677z"/>
	<path clip-path="url(#SVGID_2_)" d="M147.248,108.809H139.9v6.881h-1.418v-6.881h-7.24v-8.66h7.24v-4.022h1.418v4.022h7.348
		V108.809z M138.482,101.42h-5.907v6.076h5.907V101.42z M145.872,101.42H139.9v6.076h5.972V101.42z"/>
	<path clip-path="url(#SVGID_2_)" d="M170.516,115.795c-3.994-1.044-7.164-2.674-9.506-4.891c-2.302,2.132-5.188,3.691-8.66,4.68
		l-0.529-1.207c3.261-1.002,5.985-2.513,8.174-4.531c-1.737-1.934-3.155-4.453-4.257-7.559l1.102-0.529
		c1.059,2.908,2.42,5.287,4.086,7.135c1.849-1.976,3.246-4.39,4.192-7.241H152.35v-1.313h18.399v1.313h-4.108
		c-1.03,3.317-2.583,6.084-4.657,8.3c2.3,2.116,5.384,3.627,9.252,4.53L170.516,115.795z M161.306,100.149
		c-0.818-1.581-1.503-2.816-2.054-3.705l1.186-0.466c0.733,1.059,1.461,2.252,2.182,3.578L161.306,100.149z"/>
</g>
</svg>
